<?xml version="1.0" encoding="UTF-8"?>
<svg width="235px" height="76px" viewBox="0 0 235 76" version="1.1" xmlns="http://www.w3.org/2000/svg" xmlns:xlink="http://www.w3.org/1999/xlink">
    <!-- Generator: Sketch 53.2 (72643) - https://sketchapp.com -->
    <title>dmfv-logo-pos</title>
    <desc>Created with Sketch.</desc>
    <g id="Symbols" stroke="none" stroke-width="1" fill="none" fill-rule="evenodd">
        <g id="Footer-light" transform="translate(-150.000000, -42.000000)">
            <g id="dmfv-logo-pos" transform="translate(148.000000, 42.000000)">
                <polygon id="Combined-Shape" fill="#3391D8" points="163.920949 3.49473684 165.701412 0 151.150343 0 147.589416 6.98947368 154.518497 6.98947368 150.95757 13.9789474 158.579559 13.9789474"></polygon>
                <polygon id="Combined-Shape-Copy" fill="#C80973" points="89.0868785 17.4736842 90.8673417 13.9789474 76.3162725 13.9789474 72.755346 20.9684211 79.6844265 20.9684211 76.1235 27.9578947 83.7454886 27.9578947"></polygon>
                <polygon id="Combined-Shape-Copy-2" fill="#E4013A" points="111.952844 10.4842105 113.733308 6.98947368 99.1822384 6.98947368 95.6213119 13.9789474 102.550392 13.9789474 98.9894658 20.9684211 106.611454 20.9684211"></polygon>
                <polygon id="Combined-Shape-Copy-3" fill="#FFDD00" points="129.968454 17.4736842 131.748917 13.9789474 117.197848 13.9789474 113.636921 20.9684211 120.566002 20.9684211 117.005075 27.9578947 124.627064 27.9578947"></polygon>
                <polygon id="Combined-Shape-Copy-4" fill="#113962" points="147.291155 23.7642105 149.071619 20.2694737 134.520549 20.2694737 130.959623 27.2589474 137.888703 27.2589474 134.327777 34.2484211 141.949765 34.2484211"></polygon>
                <polygon id="Combined-Shape-Copy-5" fill="#F59C00" points="109.181212 30.7536842 110.961675 27.2589474 96.4106062 27.2589474 92.8496796 34.2484211 99.7787602 34.2484211 96.2178336 41.2378947 103.839822 41.2378947"></polygon>
                <polygon id="Combined-Shape-Copy-6" fill="#AFCB08" points="129.968454 44.7326316 131.748917 41.2378947 117.197848 41.2378947 113.636921 48.2273684 120.566002 48.2273684 117.005075 55.2168421 124.627064 55.2168421"></polygon>
                <polygon id="Combined-Shape-Copy-7" fill="#00836F" points="145.905339 51.7221053 147.685802 48.2273684 133.134733 48.2273684 129.573807 55.2168421 136.502887 55.2168421 132.941961 62.2063158 140.563949 62.2063158"></polygon>
                <path d="M8.68976842,70.7817011 C8.95979082,70.8063973 9.27276664,70.8249192 9.62870526,70.8372674 C9.98464388,70.8496155 10.4080818,70.8557895 10.8990316,70.8557895 C13.771088,70.8557895 15.900551,70.1272606 17.2874842,68.6701811 C18.6744175,67.2131015 19.3678737,65.2003862 19.3678737,62.6319747 C19.3678737,59.940082 18.7051014,57.9026708 17.3795368,56.51968 C16.0539723,55.1366892 13.9551933,54.4452042 11.0831368,54.4452042 C10.690377,54.4452042 10.2853495,54.4513782 9.86804211,54.4637263 C9.45073476,54.4760744 9.05798079,54.5069443 8.68976842,54.5563368 L8.68976842,70.7817011 Z M25.2960632,62.6319747 C25.2960632,64.8546385 24.9524034,66.7932661 24.2650737,68.4479158 C23.5777439,70.1025655 22.6019958,71.4731875 21.3378,72.5598232 C20.0736042,73.6464588 18.5332722,74.4614232 16.7167579,75.0047411 C14.9002435,75.5480589 12.8628323,75.8197137 10.6044632,75.8197137 C9.57346853,75.8197137 8.3706595,75.7764959 6.996,75.6900589 C5.6213405,75.603622 4.27124873,75.4245768 2.94568421,75.1529179 L2.94568421,50.1480758 C4.27124873,49.9011132 5.6520244,49.7344159 7.08805263,49.6479789 C8.52408086,49.561542 9.75757379,49.5183242 10.7885684,49.5183242 C12.9732951,49.5183242 14.9554753,49.7652831 16.7351684,50.2592084 C18.5148615,50.7531337 20.0429199,51.5310543 21.3193895,52.5929937 C22.595859,53.654933 23.5777439,55.0132072 24.2650737,56.6678568 C24.9524034,58.3225065 25.2960632,60.3105259 25.2960632,62.6319747 Z M36.8578737,49.8146779 C37.2997285,50.6296546 37.8090813,51.6360123 38.3859474,52.8337811 C38.9628134,54.0315498 39.5642179,55.3280843 40.1901789,56.7234232 C40.81614,58.1187621 41.4359548,59.5449499 42.0496421,61.0020295 C42.6633294,62.459109 43.2401868,63.8297311 43.7802316,65.1139368 C44.3202764,63.8297311 44.8971338,62.459109 45.5108211,61.0020295 C46.1245083,59.5449499 46.7443232,58.1187621 47.3702842,56.7234232 C47.9962452,55.3280843 48.5976497,54.0315498 49.1745158,52.8337811 C49.7513818,51.6360123 50.2607346,50.6296546 50.7025895,49.8146779 L55.9311789,49.8146779 C56.1766539,51.5187201 56.4037147,53.4264779 56.6123684,55.5380084 C56.8210221,57.649539 57.0051255,59.8474735 57.1646842,62.1318779 C57.3242429,64.4162823 57.4715256,66.7068264 57.6065368,69.0035789 C57.741548,71.3003315 57.8581469,73.4612222 57.9563368,75.4863158 L52.3595368,75.4863158 C52.2858944,72.9919931 52.1877059,70.2754449 52.0649684,67.3365895 C51.942231,64.3977341 51.7581275,61.4342269 51.5126526,58.4459789 C51.0707978,59.483222 50.5798553,60.6315811 50.0398105,61.8910905 C49.4997657,63.1506 48.9658658,64.4100905 48.4380947,65.6696 C47.9103237,66.9291095 47.4009709,68.1330343 46.9100211,69.2814105 C46.4190712,70.4297868 46.0017701,71.4114486 45.6581053,72.2264253 L41.6446105,72.2264253 C41.3009457,71.4114486 40.8836446,70.4297868 40.3926947,69.2814105 C39.9017449,68.1330343 39.3923921,66.9291095 38.8646211,65.6696 C38.33685,64.4100905 37.8029501,63.1506 37.2629053,61.8910905 C36.7228605,60.6315811 36.231918,59.483222 35.7900632,58.4459789 C35.5445882,61.4342269 35.3604848,64.3977341 35.2377474,67.3365895 C35.1150099,70.2754449 35.0168214,72.9919931 34.9431789,75.4863158 L29.3463789,75.4863158 C29.4445689,73.4612222 29.5611677,71.3003315 29.6961789,69.0035789 C29.8311901,66.7068264 29.9784729,64.4162823 30.1380316,62.1318779 C30.2975903,59.8474735 30.4816937,57.649539 30.6903474,55.5380084 C30.899001,53.4264779 31.1260619,51.5187201 31.3715368,49.8146779 L36.8578737,49.8146779 Z M63.1112842,75.4863158 L63.1112842,49.8146779 L80.1962526,49.8146779 L80.1962526,54.6674695 L68.8553684,54.6674695 L68.8553684,60.03888 L78.9443368,60.03888 L78.9443368,64.8916716 L68.8553684,64.8916716 L68.8553684,75.4863158 L63.1112842,75.4863158 Z M92.7890526,75.4863158 C91.7826055,73.3377408 90.788447,71.1027625 89.8065474,68.7813137 C88.8246477,66.4598649 87.8918571,64.1631468 87.0081474,61.8910905 C86.1244377,59.6190343 85.3082458,57.4457956 84.5595474,55.3713095 C83.8108489,53.2968233 83.1664869,51.4446313 82.6264421,49.8146779 L88.9596632,49.8146779 C89.450613,51.2964537 89.9845129,52.8955128 90.5613789,54.6119032 C91.138245,56.3282935 91.7273759,58.0384841 92.3287895,59.7425263 C92.930203,61.4465685 93.5131972,63.0764975 94.0777895,64.6323621 C94.6423818,66.1882267 95.1701449,67.5341529 95.6610947,68.6701811 C96.1274971,67.5341529 96.6491234,66.1882267 97.2259895,64.6323621 C97.8028555,63.0764975 98.3919865,61.4465685 98.9934,59.7425263 C99.5948135,58.0384841 100.183944,56.3282935 100.760811,54.6119032 C101.337677,52.8955128 101.871576,51.2964537 102.362526,49.8146779 L108.474821,49.8146779 C107.910229,51.4446313 107.25973,53.2968233 106.523305,55.3713095 C105.786881,57.4457956 104.976825,59.6190343 104.093116,61.8910905 C103.209406,64.1631468 102.276615,66.4598649 101.294716,68.7813137 C100.312816,71.1027625 99.3186577,73.3377408 98.3122105,75.4863158 L92.7890526,75.4863158 Z" id="DMFV" fill="#000000" fill-rule="nonzero"></path>
                <path d="M115.772358,74.7873684 L115.772358,68.4905516 L119.72819,68.4905516 L119.72819,69.4627874 L116.910337,69.4627874 L116.910337,71.0710653 L119.412085,71.0710653 L119.412085,72.0433011 L116.910337,72.0433011 L116.910337,74.7873684 L115.772358,74.7873684 Z M124.70459,73.79696 L124.70459,74.7873684 L120.748758,74.7873684 L120.748758,68.4905516 L121.886737,68.4905516 L121.886737,73.79696 L124.70459,73.79696 Z M125.571622,68.4905516 L126.709601,68.4905516 L126.709601,74.7873684 L125.571622,74.7873684 L125.571622,68.4905516 Z M128.208843,74.7873684 L128.208843,68.4905516 L132.227895,68.4905516 L132.227895,69.4627874 L129.346822,69.4627874 L129.346822,71.0165474 L131.91179,71.0165474 L131.91179,71.9706105 L129.346822,71.9706105 L129.346822,73.8151326 L132.444653,73.8151326 L132.444653,74.7873684 L128.208843,74.7873684 Z M136.20179,69.3537516 C135.557534,69.3537516 135.065318,69.5551629 134.725127,69.9579916 C134.384936,70.3608203 134.214843,70.9196231 134.214843,71.6344168 C134.214843,71.973641 134.255484,72.284087 134.336769,72.5657642 C134.418054,72.8474414 134.538473,73.0882264 134.698032,73.2881263 C134.857591,73.4880263 135.056284,73.6440065 135.294116,73.7560716 C135.531949,73.8681367 135.81042,73.9241684 136.129537,73.9241684 C136.328233,73.9241684 136.499831,73.9165966 136.644337,73.9014526 C136.788843,73.8863087 136.903242,73.8666219 136.987537,73.8423916 L136.987537,71.5798989 L138.125516,71.5798989 L138.125516,74.6056421 C137.968968,74.6662178 137.704045,74.7328502 137.330737,74.8055411 C136.95743,74.8782319 136.526929,74.9145768 136.039222,74.9145768 C135.58764,74.9145768 135.175202,74.841887 134.801895,74.6965053 C134.428588,74.5511235 134.110981,74.3391116 133.849064,74.0604632 C133.587147,73.7818147 133.383938,73.4395669 133.239432,73.0337095 C133.094926,72.627852 133.022674,72.1614258 133.022674,71.6344168 C133.022674,71.1074079 133.102452,70.6409817 133.262011,70.2351242 C133.42157,69.8292667 133.639831,69.4855046 133.916801,69.2038274 C134.19377,68.9221502 134.518904,68.7086239 134.892211,68.5632421 C135.265518,68.4178603 135.662904,68.3451705 136.08438,68.3451705 C136.373392,68.3451705 136.630789,68.3648573 136.85658,68.4042316 C137.08237,68.4436058 137.276547,68.4875226 137.439116,68.5359832 C137.601686,68.5844438 137.735653,68.6359324 137.841022,68.6904505 C137.946391,68.7449687 138.020148,68.7843423 138.062295,68.8085726 L137.719095,69.7444632 C137.538463,69.6354268 137.314181,69.5430502 137.046243,69.4673305 C136.778305,69.3916108 136.496823,69.3537516 136.20179,69.3537516 Z M139.444127,74.7873684 L139.444127,68.4905516 L143.46318,68.4905516 L143.46318,69.4627874 L140.582106,69.4627874 L140.582106,71.0165474 L143.147074,71.0165474 L143.147074,71.9706105 L140.582106,71.9706105 L140.582106,73.8151326 L143.679937,73.8151326 L143.679937,74.7873684 L139.444127,74.7873684 Z M148.95438,74.7873684 C148.749663,74.4420867 148.520865,74.0710658 148.26798,73.6742947 C148.015094,73.2775236 147.753181,72.8777297 147.482232,72.4749011 C147.211283,72.0720724 146.935823,71.6813647 146.655843,71.3027663 C146.375862,70.9241679 146.109433,70.5834345 145.856548,70.2805558 L145.856548,74.7873684 L144.736632,74.7873684 L144.736632,68.4905516 L145.666885,68.4905516 C145.907728,68.7449697 146.166631,69.0463295 146.443601,69.39464 C146.72057,69.7429505 146.999041,70.1048851 147.279022,70.4804547 C147.559002,70.8560243 147.829947,71.2331027 148.091864,71.6117011 C148.353781,71.9902994 148.587094,72.3431478 148.791811,72.6702568 L148.791811,68.4905516 L149.920758,68.4905516 L149.920758,74.7873684 L148.95438,74.7873684 Z M157.678885,74.7873684 C157.59459,74.5390079 157.507285,74.2936798 157.416969,74.0513768 C157.326653,73.8090739 157.239348,73.5607171 157.155053,73.3062989 L154.517832,73.3062989 C154.433537,73.5607171 154.347738,73.8105882 154.260432,74.05592 C154.173126,74.3012518 154.087327,74.5450655 154.003032,74.7873684 L152.819895,74.7873684 C153.054718,74.1149777 153.277494,73.4940857 153.488232,72.9246737 C153.69897,72.3552617 153.905189,71.8161457 154.106895,71.3073095 C154.308602,70.7984732 154.5088,70.3138746 154.707495,69.8534989 C154.906191,69.3931233 155.110905,68.9388121 155.321643,68.4905516 L156.396401,68.4905516 C156.607138,68.9388121 156.811852,69.3931233 157.010548,69.8534989 C157.209244,70.3138746 157.409442,70.7984732 157.611148,71.3073095 C157.812854,71.8161457 158.020578,72.3552617 158.234327,72.9246737 C158.448075,73.4940857 158.672357,74.1149777 158.90718,74.7873684 L157.678885,74.7873684 Z M155.836443,69.7081179 C155.697958,70.0291693 155.539907,70.419877 155.362285,70.8802526 C155.184663,71.3406283 154.999517,71.8403706 154.806843,72.3794947 L156.866043,72.3794947 C156.673368,71.8403706 156.486717,71.3375995 156.306085,70.8711663 C156.125452,70.4047331 155.968907,70.0170542 155.836443,69.7081179 Z M162.032106,74.9236632 C161.604609,74.9236632 161.237328,74.861574 160.930253,74.7373937 C160.623178,74.6132134 160.368791,74.4390608 160.167085,74.2149305 C159.965379,73.9908003 159.816359,73.7272998 159.720022,73.4244211 C159.623684,73.1215423 159.575516,72.7883808 159.575516,72.4249263 L159.575516,68.4905516 L160.722527,68.4905516 L160.722527,72.3158905 C160.722527,72.6005965 160.754137,72.8444102 160.817358,73.0473389 C160.88058,73.2502677 160.970895,73.4153341 161.088306,73.5425432 C161.205717,73.6697522 161.3442,73.7636432 161.503758,73.8242189 C161.663317,73.8847947 161.842442,73.9150821 162.041137,73.9150821 C162.239833,73.9150821 162.420463,73.8847947 162.583032,73.8242189 C162.745601,73.7636432 162.885589,73.6697522 163.003001,73.5425432 C163.120412,73.4153341 163.210727,73.2502677 163.273948,73.0473389 C163.337169,72.8444102 163.36878,72.6005965 163.36878,72.3158905 L163.36878,68.4905516 L164.51579,68.4905516 L164.51579,72.4249263 C164.51579,72.7883808 164.466117,73.1215423 164.366769,73.4244211 C164.267421,73.7272998 164.116896,73.9908003 163.91519,74.2149305 C163.713484,74.4390608 163.456086,74.6132134 163.14299,74.7373937 C162.829894,74.861574 162.459603,74.9236632 162.032106,74.9236632 Z M167.48718,73.9332547 C167.896613,73.9332547 168.194652,73.8635937 168.381306,73.7242695 C168.567959,73.5849453 168.661285,73.3880771 168.661285,73.1336589 C168.661285,72.9822196 168.629675,72.8519837 168.566453,72.7429474 C168.503232,72.633911 168.412917,72.5354769 168.295506,72.4476421 C168.178095,72.3598073 168.035096,72.2780313 167.866506,72.2023116 C167.697916,72.1265919 167.505244,72.0523877 167.288485,71.9796968 C167.071726,71.9009484 166.862496,71.8146292 166.66079,71.7207368 C166.459084,71.6268444 166.281465,71.5102379 166.127927,71.3709137 C165.974389,71.2315895 165.850959,71.0650087 165.757632,70.8711663 C165.664305,70.6773239 165.617643,70.4441108 165.617643,70.17152 C165.617643,69.602108 165.813325,69.1553686 166.204695,68.8312884 C166.596066,68.5072082 167.128924,68.3451705 167.803285,68.3451705 C168.194655,68.3451705 168.542368,68.3890873 168.846432,68.4769221 C169.150497,68.5647569 169.389831,68.6601623 169.564443,68.7631411 L169.212211,69.6899453 C169.007494,69.5748514 168.783212,69.4870178 168.539358,69.4264421 C168.295505,69.3658664 168.044128,69.3355789 167.785222,69.3355789 C167.478146,69.3355789 167.238812,69.3991825 167.067211,69.5263916 C166.89561,69.6536006 166.809811,69.8322964 166.809811,70.0624842 C166.809811,70.2018084 166.838411,70.3214437 166.895611,70.4213937 C166.952811,70.5213437 167.034095,70.6106915 167.139464,70.68944 C167.244833,70.7681885 167.368263,70.8408783 167.509758,70.9075116 C167.651254,70.9741449 167.806294,71.0377485 167.974885,71.0983242 C168.269918,71.2073605 168.533336,71.3179096 168.765148,71.4299747 C168.99696,71.5420399 169.192642,71.6753045 169.352201,71.8297726 C169.511759,71.9842408 169.633684,72.1659653 169.71798,72.3749516 C169.802275,72.5839379 169.844422,72.8368378 169.844422,73.1336589 C169.844422,73.7030709 169.644224,74.1437528 169.243822,74.4557179 C168.84342,74.767683 168.257878,74.9236632 167.48718,74.9236632 C167.228273,74.9236632 166.991949,74.9070051 166.778201,74.8736884 C166.564452,74.8403718 166.374791,74.7994838 166.209211,74.7510232 C166.043631,74.7025626 165.900633,74.6525883 165.780211,74.6010989 C165.659789,74.5496096 165.563454,74.5026641 165.491201,74.4602611 L165.825369,73.5243705 C165.987938,73.6152341 166.207704,73.7060964 166.484674,73.79696 C166.761644,73.8878236 167.095809,73.9332547 167.48718,73.9332547 Z M176.907116,73.79696 L176.907116,74.7873684 L172.951285,74.7873684 L172.951285,68.4905516 L174.089264,68.4905516 L174.089264,73.79696 L176.907116,73.79696 Z M177.774148,74.7873684 L177.774148,68.4905516 L181.793201,68.4905516 L181.793201,69.4627874 L178.912127,69.4627874 L178.912127,71.0165474 L181.477095,71.0165474 L181.477095,71.9706105 L178.912127,71.9706105 L178.912127,73.8151326 L182.009958,73.8151326 L182.009958,74.7873684 L177.774148,74.7873684 Z M183.066653,68.4905516 L184.204632,68.4905516 L184.204632,74.7873684 L183.066653,74.7873684 L183.066653,68.4905516 Z M186.841853,73.8423916 C186.908085,73.8484492 186.99539,73.8529923 187.103769,73.8560211 C187.212149,73.8590498 187.359663,73.8605642 187.546316,73.8605642 C188.310994,73.8605642 188.881483,73.6652104 189.257801,73.2744968 C189.634118,72.8837833 189.822274,72.3370954 189.822274,71.6344168 C189.822274,70.9196231 189.638634,70.3714209 189.271348,69.9897937 C188.904062,69.6081665 188.335078,69.4173558 187.56438,69.4173558 C187.227199,69.4173558 186.986359,69.426442 186.841853,69.4446147 L186.841853,73.8423916 Z M191.014443,71.6344168 C191.014443,72.1795985 190.930149,72.6535966 190.761558,73.0564253 C190.592968,73.4592539 190.353634,73.7954443 190.043548,74.0650063 C189.733462,74.3345684 189.360161,74.5344653 188.923632,74.6647032 C188.487104,74.794941 188.003919,74.8600589 187.474064,74.8600589 C187.221178,74.8600589 186.935181,74.8494584 186.616064,74.8282568 C186.296946,74.8070553 185.992886,74.7631386 185.703874,74.6965053 L185.703874,68.5814147 C185.992886,68.5147814 186.299957,68.472379 186.625095,68.4542063 C186.950234,68.4360336 187.239241,68.4269474 187.492127,68.4269474 C188.015961,68.4269474 188.49463,68.4890366 188.928148,68.6132168 C189.361666,68.7373971 189.733462,68.9312366 190.043548,69.1947411 C190.353634,69.4582455 190.592968,69.7914071 190.761558,70.1942358 C190.930149,70.5970645 191.014443,71.07712 191.014443,71.6344168 Z M192.260801,74.7873684 L192.260801,68.4905516 L196.279853,68.4905516 L196.279853,69.4627874 L193.39878,69.4627874 L193.39878,71.0165474 L195.963748,71.0165474 L195.963748,71.9706105 L193.39878,71.9706105 L193.39878,73.8151326 L196.496611,73.8151326 L196.496611,74.7873684 L192.260801,74.7873684 Z M201.771053,74.7873684 C201.566336,74.4420867 201.337539,74.0710658 201.084653,73.6742947 C200.831768,73.2775236 200.569855,72.8777297 200.298906,72.4749011 C200.027957,72.0720724 199.752497,71.6813647 199.472516,71.3027663 C199.192536,70.9241679 198.926107,70.5834345 198.673222,70.2805558 L198.673222,74.7873684 L197.553306,74.7873684 L197.553306,68.4905516 L198.483558,68.4905516 C198.724402,68.7449697 198.983304,69.0463295 199.260274,69.39464 C199.537244,69.7429505 199.815715,70.1048851 200.095695,70.4804547 C200.375676,70.8560243 200.64662,71.2331027 200.908537,71.6117011 C201.170455,71.9902994 201.403768,72.3431478 201.608485,72.6702568 L201.608485,68.4905516 L202.737432,68.4905516 L202.737432,74.7873684 L201.771053,74.7873684 Z M205.75398,73.9332547 C206.163413,73.9332547 206.461452,73.8635937 206.648106,73.7242695 C206.834759,73.5849453 206.928085,73.3880771 206.928085,73.1336589 C206.928085,72.9822196 206.896475,72.8519837 206.833253,72.7429474 C206.770032,72.633911 206.679717,72.5354769 206.562306,72.4476421 C206.444895,72.3598073 206.301896,72.2780313 206.133306,72.2023116 C205.964716,72.1265919 205.772044,72.0523877 205.555285,71.9796968 C205.338526,71.9009484 205.129296,71.8146292 204.92759,71.7207368 C204.725884,71.6268444 204.548265,71.5102379 204.394727,71.3709137 C204.241189,71.2315895 204.117759,71.0650087 204.024432,70.8711663 C203.931105,70.6773239 203.884443,70.4441108 203.884443,70.17152 C203.884443,69.602108 204.080125,69.1553686 204.471495,68.8312884 C204.862866,68.5072082 205.395724,68.3451705 206.070085,68.3451705 C206.461455,68.3451705 206.809168,68.3890873 207.113232,68.4769221 C207.417297,68.5647569 207.656631,68.6601623 207.831243,68.7631411 L207.479011,69.6899453 C207.274294,69.5748514 207.050012,69.4870178 206.806158,69.4264421 C206.562305,69.3658664 206.310928,69.3355789 206.052022,69.3355789 C205.744946,69.3355789 205.505612,69.3991825 205.334011,69.5263916 C205.16241,69.6536006 205.076611,69.8322964 205.076611,70.0624842 C205.076611,70.2018084 205.105211,70.3214437 205.162411,70.4213937 C205.219611,70.5213437 205.300895,70.6106915 205.406264,70.68944 C205.511633,70.7681885 205.635063,70.8408783 205.776558,70.9075116 C205.918054,70.9741449 206.073094,71.0377485 206.241685,71.0983242 C206.536718,71.2073605 206.800136,71.3179096 207.031948,71.4299747 C207.26376,71.5420399 207.459442,71.6753045 207.619001,71.8297726 C207.778559,71.9842408 207.900484,72.1659653 207.98478,72.3749516 C208.069075,72.5839379 208.111222,72.8368378 208.111222,73.1336589 C208.111222,73.7030709 207.911024,74.1437528 207.510622,74.4557179 C207.11022,74.767683 206.524678,74.9236632 205.75398,74.9236632 C205.495073,74.9236632 205.258749,74.9070051 205.045001,74.8736884 C204.831252,74.8403718 204.641591,74.7994838 204.476011,74.7510232 C204.310431,74.7025626 204.167433,74.6525883 204.047011,74.6010989 C203.926589,74.5496096 203.830254,74.5026641 203.758001,74.4602611 L204.092169,73.5243705 C204.254738,73.6152341 204.474504,73.7060964 204.751474,73.79696 C205.028444,73.8878236 205.362609,73.9332547 205.75398,73.9332547 Z M211.895453,74.9236632 C211.425809,74.9236632 211.004339,74.8509734 210.631032,74.7055916 C210.257725,74.5602098 209.941623,74.3466835 209.682716,74.0650063 C209.42381,73.7833291 209.225117,73.4395669 209.086632,73.0337095 C208.948147,72.627852 208.878906,72.1614258 208.878906,71.6344168 C208.878906,71.1074079 208.958684,70.6409817 209.118243,70.2351242 C209.277801,69.8292667 209.496062,69.4855046 209.773032,69.2038274 C210.050002,68.9221502 210.375136,68.7086239 210.748443,68.5632421 C211.12175,68.4178603 211.522146,68.3451705 211.949643,68.3451705 C212.208549,68.3451705 212.443368,68.3648573 212.654106,68.4042316 C212.864844,68.4436058 213.048484,68.4875226 213.205032,68.5359832 C213.36158,68.5844438 213.491032,68.6359324 213.59339,68.6904505 C213.695748,68.7449687 213.768,68.7843423 213.810148,68.8085726 L213.47598,69.7444632 C213.331474,69.6535995 213.125255,69.5672804 212.857316,69.4855032 C212.589378,69.4037259 212.298865,69.3628379 211.985769,69.3628379 C211.71482,69.3628379 211.461939,69.4097834 211.227116,69.5036758 C210.992294,69.5975682 210.789086,69.7384047 210.617485,69.9261895 C210.445884,70.1139743 210.311917,70.3502161 210.21558,70.6349221 C210.119242,70.9196281 210.071074,71.2497609 210.071074,71.6253305 C210.071074,71.9584971 210.108705,72.2644 210.183969,72.5430484 C210.259233,72.8216968 210.375137,73.0624818 210.531685,73.2654105 C210.688233,73.4683393 210.886926,73.6258338 211.127769,73.7378989 C211.368612,73.8499641 211.65762,73.9059958 211.994801,73.9059958 C212.398213,73.9059958 212.726357,73.8651078 212.979243,73.7833305 C213.232128,73.7015533 213.42781,73.6243204 213.566295,73.5516295 L213.873369,74.48752 C213.801116,74.5359806 213.703275,74.5844405 213.579843,74.6329011 C213.456411,74.6813616 213.310401,74.7283071 213.141811,74.7737389 C212.973221,74.8191708 212.78356,74.8555157 212.572822,74.8827747 C212.362084,74.9100338 212.136297,74.9236632 211.895453,74.9236632 Z M218.732358,68.4905516 L219.870337,68.4905516 L219.870337,74.7873684 L218.732358,74.7873684 L218.732358,71.9978695 L216.013853,71.9978695 L216.013853,74.7873684 L214.875874,74.7873684 L214.875874,68.4905516 L216.013853,68.4905516 L216.013853,71.0074611 L218.732358,71.0074611 L218.732358,68.4905516 Z M225.524106,74.7873684 C225.439811,74.5390079 225.352506,74.2936798 225.26219,74.0513768 C225.171874,73.8090739 225.084569,73.5607171 225.000274,73.3062989 L222.363053,73.3062989 C222.278758,73.5607171 222.192959,73.8105882 222.105653,74.05592 C222.018348,74.3012518 221.932548,74.5450655 221.848253,74.7873684 L220.665116,74.7873684 C220.899939,74.1149777 221.122715,73.4940857 221.333453,72.9246737 C221.544191,72.3552617 221.75041,71.8161457 221.952116,71.3073095 C222.153823,70.7984732 222.354021,70.3138746 222.552716,69.8534989 C222.751412,69.3931233 222.956126,68.9388121 223.166864,68.4905516 L224.241622,68.4905516 C224.45236,68.9388121 224.657073,69.3931233 224.855769,69.8534989 C225.054465,70.3138746 225.254663,70.7984732 225.456369,71.3073095 C225.658075,71.8161457 225.8658,72.3552617 226.079548,72.9246737 C226.293296,73.4940857 226.517578,74.1149777 226.752401,74.7873684 L225.524106,74.7873684 Z M223.681664,69.7081179 C223.543179,70.0291693 223.385128,70.419877 223.207506,70.8802526 C223.029884,71.3406283 222.844738,71.8403706 222.652064,72.3794947 L224.711264,72.3794947 C224.518589,71.8403706 224.331938,71.3375995 224.151306,70.8711663 C223.970673,70.4047331 223.814128,70.0170542 223.681664,69.7081179 Z M227.54718,74.7873684 L227.54718,68.4905516 L231.503011,68.4905516 L231.503011,69.4627874 L228.685158,69.4627874 L228.685158,71.0710653 L231.186906,71.0710653 L231.186906,72.0433011 L228.685158,72.0433011 L228.685158,74.7873684 L227.54718,74.7873684 Z M236.994211,68.4905516 L236.994211,69.48096 L235.070485,69.48096 L235.070485,74.7873684 L233.923474,74.7873684 L233.923474,69.48096 L231.999748,69.48096 L231.999748,68.4905516 L236.994211,68.4905516 Z" id="FLIEGENAUSLEIDENSCHAFT" fill="#000000" fill-rule="nonzero"></path>
            </g>
        </g>
    </g>
</svg>