<?xml version="1.0" encoding="UTF-8"?>
<svg width="338px" height="108px" viewBox="0 0 338 108" version="1.1" xmlns="http://www.w3.org/2000/svg" xmlns:xlink="http://www.w3.org/1999/xlink">
    <!-- Generator: Sketch 53.2 (72643) - https://sketchapp.com -->
    <title>dmfv-logo-neg</title>
    <desc>Created with Sketch.</desc>
    <g id="Assets" stroke="none" stroke-width="1" fill="none" fill-rule="evenodd">
        <g transform="translate(-385.000000, -31.000000)" id="dmfv-logo-neg">
            <g transform="translate(381.000000, 31.000000)">
                <polygon id="Combined-Shape" fill="#FFFFFF" points="235.94682 5 238.509608 0 217.564887 0 212.439311 10 222.412988 10 217.287412 20 228.258456 20"></polygon>
                <polygon id="Combined-Shape-Copy" fill="#C80973" points="128.231113 25 130.793901 20 109.84918 20 104.723604 30 114.697281 30 109.571705 40 120.542749 40"></polygon>
                <polygon id="Combined-Shape-Copy-2" fill="#E4013A" points="161.144246 15 163.707034 10 142.762313 10 137.636737 20 147.610413 20 142.484837 30 153.455881 30"></polygon>
                <polygon id="Combined-Shape-Copy-3" fill="#FFDD00" points="187.075805 25 189.638593 20 168.693872 20 163.568296 30 173.541972 30 168.416396 40 179.387441 40"></polygon>
                <polygon id="Combined-Shape-Copy-4" fill="#3391D8" points="212.009996 34 214.572784 29 193.628063 29 188.502487 39 198.476164 39 193.350588 49 204.321632 49"></polygon>
                <polygon id="Combined-Shape-Copy-5" fill="#F59C00" points="157.154775 44 159.717563 39 138.772842 39 133.647266 49 143.620943 49 138.495367 59 149.466411 59"></polygon>
                <polygon id="Combined-Shape-Copy-6" fill="#AFCB08" points="187.075805 64 189.638593 59 168.693872 59 163.568296 69 173.541972 69 168.416396 79 179.387441 79"></polygon>
                <polygon id="Combined-Shape-Copy-7" fill="#00836F" points="210.015261 74 212.578049 69 191.633328 69 186.507752 79 196.481429 79 191.355852 89 202.326897 89"></polygon>
                <path d="M12.508,100.269 C12.8966686,100.304334 13.3471641,100.330833 13.8595,100.3485 C14.3718359,100.366167 14.9813298,100.375 15.688,100.375 C19.8220207,100.375 22.8871567,99.3326771 24.8835,97.248 C26.8798433,95.1633229 27.878,92.283685 27.878,88.609 C27.878,84.7576474 26.9240095,81.8426766 25.016,79.864 C23.1079905,77.8853234 20.0870207,76.896 15.953,76.896 C15.3876638,76.896 14.8046697,76.9048332 14.204,76.9225 C13.6033303,76.9401668 13.0380027,76.984333 12.508,77.055 L12.508,100.269 Z M36.411,88.609 C36.411,91.7890159 35.9163383,94.5626548 34.927,96.93 C33.9376617,99.2973452 32.5331758,101.258326 30.7135,102.813 C28.8938242,104.367674 26.6766797,105.533663 24.062,106.311 C21.4473203,107.088337 18.5146829,107.477 15.264,107.477 C13.7799926,107.477 12.0486766,107.415167 10.07,107.2915 C8.09132344,107.167833 6.14800954,106.911669 4.24,106.523 L4.24,70.748 C6.14800954,70.3946649 8.13548966,70.1561673 10.2025,70.0325 C12.2695103,69.9088327 14.0449926,69.847 15.529,69.847 C18.6736824,69.847 21.5268205,70.2003298 24.0885,70.907 C26.6501795,71.6136702 28.8496575,72.7266591 30.687,74.246 C32.5243425,75.7653409 33.9376617,77.7086548 34.927,80.076 C35.9163383,82.4433452 36.411,85.2876501 36.411,88.609 Z M53.053,70.271 C53.6890032,71.4370058 54.4221625,72.8768248 55.2525,74.5905 C56.0828375,76.3041752 56.9484955,78.1591567 57.8495,80.1555 C58.7505045,82.1518433 59.6426622,84.1923229 60.526,86.277 C61.4093377,88.3616771 62.2396628,90.3226575 63.017,92.16 C63.7943372,90.3226575 64.6246622,88.3616771 65.508,86.277 C66.3913377,84.1923229 67.2834955,82.1518433 68.1845,80.1555 C69.0855045,78.1591567 69.9511625,76.3041752 70.7815,74.5905 C71.6118375,72.8768248 72.3449968,71.4370058 72.981,70.271 L80.507,70.271 C80.8603351,72.7090122 81.1871652,75.4384849 81.4875,78.4595 C81.7878348,81.4805151 82.0528322,84.6251503 82.2825,87.8935 C82.5121678,91.1618497 82.7241657,94.4389836 82.9185,97.725 C83.1128343,101.011016 83.280666,104.102652 83.422,107 L75.366,107 C75.2599995,103.431315 75.1186675,99.5446877 74.942,95.34 C74.7653325,91.1353123 74.5003351,86.8953547 74.147,82.62 C73.5109968,84.1040074 72.8043372,85.746991 72.027,87.549 C71.2496628,89.351009 70.4811705,91.152991 69.7215,92.955 C68.9618295,94.757009 68.2286702,96.4794918 67.522,98.1225 C66.8153298,99.7655082 66.2146691,101.169994 65.72,102.336 L59.943,102.336 C59.4483309,101.169994 58.8476702,99.7655082 58.141,98.1225 C57.4343298,96.4794918 56.7011705,94.757009 55.9415,92.955 C55.1818295,91.152991 54.4133372,89.351009 53.636,87.549 C52.8586628,85.746991 52.1520032,84.1040074 51.516,82.62 C51.1626649,86.8953547 50.8976675,91.1353123 50.721,95.34 C50.5443324,99.5446877 50.4030005,103.431315 50.297,107 L42.241,107 C42.382334,104.102652 42.5501657,101.011016 42.7445,97.725 C42.9388343,94.4389836 43.1508322,91.1618497 43.3805,87.8935 C43.6101678,84.6251503 43.8751652,81.4805151 44.1755,78.4595 C44.4758348,75.4384849 44.8026649,72.7090122 45.156,70.271 L53.053,70.271 Z M90.842,107 L90.842,70.271 L115.434,70.271 L115.434,77.214 L99.11,77.214 L99.11,84.899 L113.632,84.899 L113.632,91.842 L99.11,91.842 L99.11,107 L90.842,107 Z M133.56,107 C132.111326,103.925985 130.68034,100.72835 129.267,97.407 C127.85366,94.0856501 126.511006,90.7996829 125.239,87.549 C123.966994,84.2983171 122.792172,81.1890148 121.7145,78.221 C120.636828,75.2529852 119.709337,72.6030117 118.932,70.271 L128.048,70.271 C128.75467,72.3910106 129.523163,74.6788211 130.3535,77.1345 C131.183837,79.5901789 132.031829,82.0369878 132.8975,84.475 C133.763171,86.9130122 134.602329,89.2449889 135.415,91.471 C136.227671,93.6970111 136.98733,95.6226585 137.694,97.248 C138.365337,95.6226585 139.116163,93.6970111 139.9465,91.471 C140.776837,89.2449889 141.624829,86.9130122 142.4905,84.475 C143.356171,82.0369878 144.204163,79.5901789 145.0345,77.1345 C145.864837,74.6788211 146.63333,72.3910106 147.34,70.271 L156.138,70.271 C155.325329,72.6030117 154.389005,75.2529852 153.329,78.221 C152.268995,81.1890148 151.103006,84.2983171 149.831,87.549 C148.558994,90.7996829 147.21634,94.0856501 145.803,97.407 C144.38966,100.72835 142.958674,103.925985 141.51,107 L133.56,107 Z" id="DMFV" fill="#FFFFFF" fill-rule="nonzero"></path>
                <path d="M166.642031,107 L166.642031,97.991 L172.336031,97.991 L172.336031,99.382 L168.280031,99.382 L168.280031,101.683 L171.881031,101.683 L171.881031,103.074 L168.280031,103.074 L168.280031,107 L166.642031,107 Z M179.499031,105.583 L179.499031,107 L173.805031,107 L173.805031,97.991 L175.443031,97.991 L175.443031,105.583 L179.499031,105.583 Z M180.747031,97.991 L182.385031,97.991 L182.385031,107 L180.747031,107 L180.747031,97.991 Z M184.543031,107 L184.543031,97.991 L190.328031,97.991 L190.328031,99.382 L186.181031,99.382 L186.181031,101.605 L189.873031,101.605 L189.873031,102.97 L186.181031,102.97 L186.181031,105.609 L190.640031,105.609 L190.640031,107 L184.543031,107 Z M196.048031,99.226 C195.120693,99.226 194.4122,99.5141638 193.922531,100.0905 C193.432862,100.666836 193.188031,101.466328 193.188031,102.489 C193.188031,102.974336 193.246531,103.418498 193.363531,103.8215 C193.480532,104.224502 193.653863,104.568999 193.883531,104.855 C194.113199,105.141001 194.399196,105.364166 194.741531,105.5245 C195.083866,105.684834 195.484696,105.765 195.944031,105.765 C196.230033,105.765 196.47703,105.754167 196.685031,105.7325 C196.893032,105.710833 197.057697,105.682667 197.179031,105.648 L197.179031,102.411 L198.817031,102.411 L198.817031,106.74 C198.591697,106.826667 198.210367,106.921999 197.673031,107.026 C197.135695,107.130001 196.516035,107.182 195.814031,107.182 C195.164028,107.182 194.570367,107.078001 194.033031,106.87 C193.495695,106.661999 193.038533,106.358669 192.661531,105.96 C192.284529,105.561331 191.992032,105.07167 191.784031,104.491 C191.57603,103.91033 191.472031,103.243004 191.472031,102.489 C191.472031,101.734996 191.586863,101.06767 191.816531,100.487 C192.046199,99.9063304 192.360363,99.414502 192.759031,99.0115 C193.1577,98.608498 193.625695,98.303001 194.163031,98.095 C194.700367,97.886999 195.272361,97.783 195.879031,97.783 C196.295033,97.783 196.66553,97.8111664 196.990531,97.8675 C197.315533,97.9238336 197.59503,97.9866663 197.829031,98.056 C198.063032,98.1253337 198.255864,98.1989996 198.407531,98.277 C198.559199,98.3550004 198.665364,98.4113332 198.726031,98.446 L198.232031,99.785 C197.97203,99.6289992 197.6492,99.4968339 197.263531,99.3885 C196.877863,99.2801661 196.4727,99.226 196.048031,99.226 Z M200.715031,107 L200.715031,97.991 L206.500031,97.991 L206.500031,99.382 L202.353031,99.382 L202.353031,101.605 L206.045031,101.605 L206.045031,102.97 L202.353031,102.97 L202.353031,105.609 L206.812031,105.609 L206.812031,107 L200.715031,107 Z M214.404031,107 C214.109363,106.505998 213.780033,105.97517 213.416031,105.4075 C213.052029,104.83983 212.675033,104.267836 212.285031,103.6915 C211.895029,103.115164 211.498533,102.556169 211.095531,102.0145 C210.692529,101.472831 210.309033,100.985335 209.945031,100.552 L209.945031,107 L208.333031,107 L208.333031,97.991 L209.672031,97.991 C210.0187,98.3550018 210.391363,98.7861642 210.790031,99.2845 C211.1887,99.7828358 211.589529,100.300664 211.992531,100.838 C212.395533,101.375336 212.785529,101.914831 213.162531,102.4565 C213.539533,102.998169 213.875363,103.502998 214.170031,103.971 L214.170031,97.991 L215.795031,97.991 L215.795031,107 L214.404031,107 Z M226.962031,107 C226.840697,106.644665 226.715032,106.293668 226.585031,105.947 C226.455031,105.600332 226.329365,105.245002 226.208031,104.881 L222.412031,104.881 C222.290697,105.245002 222.167198,105.602498 222.041531,105.9535 C221.915864,106.304502 221.792365,106.653332 221.671031,107 L219.968031,107 C220.306033,106.037995 220.626696,105.149671 220.930031,104.335 C221.233366,103.520329 221.530196,102.749004 221.820531,102.021 C222.110866,101.292996 222.39903,100.59967 222.685031,99.941 C222.971033,99.28233 223.265696,98.6323365 223.569031,97.991 L225.116031,97.991 C225.419366,98.6323365 225.71403,99.28233 226.000031,99.941 C226.286033,100.59967 226.574196,101.292996 226.864531,102.021 C227.154866,102.749004 227.453863,103.520329 227.761531,104.335 C228.069199,105.149671 228.392029,106.037995 228.730031,107 L226.962031,107 Z M224.310031,99.733 C224.110697,100.192336 223.883199,100.75133 223.627531,101.41 C223.371863,102.06867 223.105366,102.783663 222.828031,103.555 L225.792031,103.555 C225.514696,102.783663 225.246032,102.064337 224.986031,101.397 C224.72603,100.729663 224.500699,100.175002 224.310031,99.733 Z M233.228031,107.195 C232.612695,107.195 232.084033,107.106168 231.642031,106.9285 C231.200029,106.750832 230.833866,106.501668 230.543531,106.181 C230.253196,105.860332 230.038699,105.483335 229.900031,105.05 C229.761364,104.616664 229.692031,104.140003 229.692031,103.62 L229.692031,97.991 L231.343031,97.991 L231.343031,103.464 C231.343031,103.871335 231.388531,104.220165 231.479531,104.5105 C231.570532,104.800835 231.70053,105.036999 231.869531,105.219 C232.038532,105.401001 232.237863,105.535333 232.467531,105.622 C232.697199,105.708667 232.95503,105.752 233.241031,105.752 C233.527033,105.752 233.78703,105.708667 234.021031,105.622 C234.255032,105.535333 234.45653,105.401001 234.625531,105.219 C234.794532,105.036999 234.924531,104.800835 235.015531,104.5105 C235.106532,104.220165 235.152031,103.871335 235.152031,103.464 L235.152031,97.991 L236.803031,97.991 L236.803031,103.62 C236.803031,104.140003 236.731532,104.616664 236.588531,105.05 C236.44553,105.483335 236.228866,105.860332 235.938531,106.181 C235.648196,106.501668 235.2777,106.750832 234.827031,106.9285 C234.376362,107.106168 233.843368,107.195 233.228031,107.195 Z M241.080031,105.778 C241.669367,105.778 242.098363,105.678334 242.367031,105.479 C242.635699,105.279666 242.770031,104.998002 242.770031,104.634 C242.770031,104.417332 242.724532,104.231001 242.633531,104.075 C242.542531,103.918999 242.412532,103.778167 242.243531,103.6525 C242.07453,103.526833 241.868699,103.409834 241.626031,103.3015 C241.383363,103.193166 241.106033,103.087001 240.794031,102.983 C240.48203,102.870333 240.180866,102.746834 239.890531,102.6125 C239.600196,102.478166 239.344532,102.311334 239.123531,102.112 C238.90253,101.912666 238.724865,101.674335 238.590531,101.397 C238.456197,101.119665 238.389031,100.786002 238.389031,100.396 C238.389031,99.5813293 238.670695,98.942169 239.234031,98.4785 C239.797367,98.014831 240.56436,97.783 241.535031,97.783 C242.098367,97.783 242.598862,97.8458327 243.036531,97.9715 C243.4742,98.0971673 243.818697,98.2336659 244.070031,98.381 L243.563031,99.707 C243.268363,99.5423325 242.945533,99.4166671 242.594531,99.33 C242.243529,99.2433329 241.8817,99.2 241.509031,99.2 C241.067029,99.2 240.722532,99.2909991 240.475531,99.473 C240.22853,99.6550009 240.105031,99.910665 240.105031,100.24 C240.105031,100.439334 240.146197,100.610499 240.228531,100.7535 C240.310865,100.896501 240.427864,101.024333 240.579531,101.137 C240.731199,101.249667 240.908863,101.353666 241.112531,101.449 C241.316199,101.544334 241.539363,101.635333 241.782031,101.722 C242.2067,101.878001 242.585863,102.036166 242.919531,102.1965 C243.2532,102.356834 243.534863,102.547499 243.764531,102.7685 C243.994199,102.989501 244.169697,103.249499 244.291031,103.5485 C244.412365,103.847501 244.473031,104.209331 244.473031,104.634 C244.473031,105.448671 244.184867,106.079164 243.608531,106.5255 C243.032195,106.971836 242.18937,107.195 241.080031,107.195 C240.707363,107.195 240.367199,107.171167 240.059531,107.1235 C239.751863,107.075833 239.478866,107.017334 239.240531,106.948 C239.002197,106.878666 238.796365,106.807167 238.623031,106.7335 C238.449697,106.659833 238.311032,106.592667 238.207031,106.532 L238.688031,105.193 C238.922032,105.323001 239.238363,105.452999 239.637031,105.583 C240.0357,105.713001 240.516695,105.778 241.080031,105.778 Z M254.639031,105.583 L254.639031,107 L248.945031,107 L248.945031,97.991 L250.583031,97.991 L250.583031,105.583 L254.639031,105.583 Z M255.887031,107 L255.887031,97.991 L261.672031,97.991 L261.672031,99.382 L257.525031,99.382 L257.525031,101.605 L261.217031,101.605 L261.217031,102.97 L257.525031,102.97 L257.525031,105.609 L261.984031,105.609 L261.984031,107 L255.887031,107 Z M263.505031,97.991 L265.143031,97.991 L265.143031,107 L263.505031,107 L263.505031,97.991 Z M268.939031,105.648 C269.034365,105.656667 269.16003,105.663167 269.316031,105.6675 C269.472032,105.671833 269.684363,105.674 269.953031,105.674 C271.053703,105.674 271.874862,105.394503 272.416531,104.8355 C272.958201,104.276497 273.229031,103.494338 273.229031,102.489 C273.229031,101.466328 272.9647,100.682003 272.436031,100.136 C271.907362,99.5899973 271.08837,99.317 269.979031,99.317 C269.493695,99.317 269.147032,99.3299999 268.939031,99.356 L268.939031,105.648 Z M274.945031,102.489 C274.945031,103.269004 274.823699,103.947164 274.581031,104.5235 C274.338363,105.099836 273.993867,105.580831 273.547531,105.9665 C273.101196,106.352169 272.563868,106.638166 271.935531,106.8245 C271.307195,107.010834 270.611702,107.104 269.849031,107.104 C269.485029,107.104 269.073367,107.088833 268.614031,107.0585 C268.154696,107.028167 267.717033,106.965334 267.301031,106.87 L267.301031,98.121 C267.717033,98.0256662 268.159029,97.9650001 268.627031,97.939 C269.095034,97.9129999 269.511029,97.9 269.875031,97.9 C270.629035,97.9 271.318028,97.9888324 271.942031,98.1665 C272.566034,98.3441676 273.101196,98.6214981 273.547531,98.9985 C273.993867,99.3755019 274.338363,99.8521638 274.581031,100.4285 C274.823699,101.004836 274.945031,101.691663 274.945031,102.489 Z M276.739031,107 L276.739031,97.991 L282.524031,97.991 L282.524031,99.382 L278.377031,99.382 L278.377031,101.605 L282.069031,101.605 L282.069031,102.97 L278.377031,102.97 L278.377031,105.609 L282.836031,105.609 L282.836031,107 L276.739031,107 Z M290.428031,107 C290.133363,106.505998 289.804033,105.97517 289.440031,105.4075 C289.076029,104.83983 288.699033,104.267836 288.309031,103.6915 C287.919029,103.115164 287.522533,102.556169 287.119531,102.0145 C286.716529,101.472831 286.333033,100.985335 285.969031,100.552 L285.969031,107 L284.357031,107 L284.357031,97.991 L285.696031,97.991 C286.0427,98.3550018 286.415363,98.7861642 286.814031,99.2845 C287.2127,99.7828358 287.613529,100.300664 288.016531,100.838 C288.419533,101.375336 288.809529,101.914831 289.186531,102.4565 C289.563533,102.998169 289.899363,103.502998 290.194031,103.971 L290.194031,97.991 L291.819031,97.991 L291.819031,107 L290.428031,107 Z M296.161031,105.778 C296.750367,105.778 297.179363,105.678334 297.448031,105.479 C297.716699,105.279666 297.851031,104.998002 297.851031,104.634 C297.851031,104.417332 297.805532,104.231001 297.714531,104.075 C297.623531,103.918999 297.493532,103.778167 297.324531,103.6525 C297.15553,103.526833 296.949699,103.409834 296.707031,103.3015 C296.464363,103.193166 296.187033,103.087001 295.875031,102.983 C295.56303,102.870333 295.261866,102.746834 294.971531,102.6125 C294.681196,102.478166 294.425532,102.311334 294.204531,102.112 C293.98353,101.912666 293.805865,101.674335 293.671531,101.397 C293.537197,101.119665 293.470031,100.786002 293.470031,100.396 C293.470031,99.5813293 293.751695,98.942169 294.315031,98.4785 C294.878367,98.014831 295.64536,97.783 296.616031,97.783 C297.179367,97.783 297.679862,97.8458327 298.117531,97.9715 C298.5552,98.0971673 298.899697,98.2336659 299.151031,98.381 L298.644031,99.707 C298.349363,99.5423325 298.026533,99.4166671 297.675531,99.33 C297.324529,99.2433329 296.9627,99.2 296.590031,99.2 C296.148029,99.2 295.803532,99.2909991 295.556531,99.473 C295.30953,99.6550009 295.186031,99.910665 295.186031,100.24 C295.186031,100.439334 295.227197,100.610499 295.309531,100.7535 C295.391865,100.896501 295.508864,101.024333 295.660531,101.137 C295.812199,101.249667 295.989863,101.353666 296.193531,101.449 C296.397199,101.544334 296.620363,101.635333 296.863031,101.722 C297.2877,101.878001 297.666863,102.036166 298.000531,102.1965 C298.3342,102.356834 298.615863,102.547499 298.845531,102.7685 C299.075199,102.989501 299.250697,103.249499 299.372031,103.5485 C299.493365,103.847501 299.554031,104.209331 299.554031,104.634 C299.554031,105.448671 299.265867,106.079164 298.689531,106.5255 C298.113195,106.971836 297.27037,107.195 296.161031,107.195 C295.788363,107.195 295.448199,107.171167 295.140531,107.1235 C294.832863,107.075833 294.559866,107.017334 294.321531,106.948 C294.083197,106.878666 293.877365,106.807167 293.704031,106.7335 C293.530697,106.659833 293.392032,106.592667 293.288031,106.532 L293.769031,105.193 C294.003032,105.323001 294.319363,105.452999 294.718031,105.583 C295.1167,105.713001 295.597695,105.778 296.161031,105.778 Z M305.001031,107.195 C304.325028,107.195 303.718367,107.091001 303.181031,106.883 C302.643695,106.674999 302.1887,106.369502 301.816031,105.9665 C301.443363,105.563498 301.157366,105.07167 300.958031,104.491 C300.758697,103.91033 300.659031,103.243004 300.659031,102.489 C300.659031,101.734996 300.773863,101.06767 301.003531,100.487 C301.233199,99.9063304 301.547363,99.414502 301.946031,99.0115 C302.3447,98.608498 302.812695,98.303001 303.350031,98.095 C303.887367,97.886999 304.463695,97.783 305.079031,97.783 C305.4517,97.783 305.789696,97.8111664 306.093031,97.8675 C306.396366,97.9238336 306.660697,97.9866663 306.886031,98.056 C307.111366,98.1253337 307.297697,98.1989996 307.445031,98.277 C307.592365,98.3550004 307.696364,98.4113332 307.757031,98.446 L307.276031,99.785 C307.06803,99.6549993 306.7712,99.5315006 306.385531,99.4145 C305.999863,99.2974994 305.5817,99.239 305.131031,99.239 C304.741029,99.239 304.377033,99.306166 304.039031,99.4405 C303.701029,99.574834 303.408532,99.776332 303.161531,100.045 C302.91453,100.313668 302.721699,100.651665 302.583031,101.059 C302.444364,101.466335 302.375031,101.938664 302.375031,102.476 C302.375031,102.952669 302.429197,103.390331 302.537531,103.789 C302.645865,104.187669 302.812697,104.532165 303.038031,104.8225 C303.263366,105.112835 303.549363,105.338166 303.896031,105.4985 C304.2427,105.658834 304.658695,105.739 305.144031,105.739 C305.724701,105.739 306.197029,105.680501 306.561031,105.5635 C306.925033,105.446499 307.206697,105.336001 307.406031,105.232 L307.848031,106.571 C307.744031,106.640334 307.603199,106.709666 307.425531,106.779 C307.247864,106.848334 307.037699,106.9155 306.795031,106.9805 C306.552363,107.0455 306.279366,107.0975 305.976031,107.1365 C305.672696,107.1755 305.3477,107.195 305.001031,107.195 Z M314.842031,97.991 L316.480031,97.991 L316.480031,107 L314.842031,107 L314.842031,103.009 L310.929031,103.009 L310.929031,107 L309.291031,107 L309.291031,97.991 L310.929031,97.991 L310.929031,101.592 L314.842031,101.592 L314.842031,97.991 Z M324.618031,107 C324.496697,106.644665 324.371032,106.293668 324.241031,105.947 C324.111031,105.600332 323.985365,105.245002 323.864031,104.881 L320.068031,104.881 C319.946697,105.245002 319.823198,105.602498 319.697531,105.9535 C319.571864,106.304502 319.448365,106.653332 319.327031,107 L317.624031,107 C317.962033,106.037995 318.282696,105.149671 318.586031,104.335 C318.889366,103.520329 319.186196,102.749004 319.476531,102.021 C319.766866,101.292996 320.05503,100.59967 320.341031,99.941 C320.627033,99.28233 320.921696,98.6323365 321.225031,97.991 L322.772031,97.991 C323.075366,98.6323365 323.37003,99.28233 323.656031,99.941 C323.942033,100.59967 324.230196,101.292996 324.520531,102.021 C324.810866,102.749004 325.109863,103.520329 325.417531,104.335 C325.725199,105.149671 326.048029,106.037995 326.386031,107 L324.618031,107 Z M321.966031,99.733 C321.766697,100.192336 321.539199,100.75133 321.283531,101.41 C321.027863,102.06867 320.761366,102.783663 320.484031,103.555 L323.448031,103.555 C323.170696,102.783663 322.902032,102.064337 322.642031,101.397 C322.38203,100.729663 322.156699,100.175002 321.966031,99.733 Z M327.530031,107 L327.530031,97.991 L333.224031,97.991 L333.224031,99.382 L329.168031,99.382 L329.168031,101.683 L332.769031,101.683 L332.769031,103.074 L329.168031,103.074 L329.168031,107 L327.530031,107 Z M341.128031,97.991 L341.128031,99.408 L338.359031,99.408 L338.359031,107 L336.708031,107 L336.708031,99.408 L333.939031,99.408 L333.939031,97.991 L341.128031,97.991 Z" id="FLIEGENAUSLEIDENSCHAFT" fill="#FFFFFF" fill-rule="nonzero"></path>
            </g>
        </g>
    </g>
</svg>